<?xml version="1.0" encoding="UTF-8" standalone="no"?>
<!-- Created with Inkscape (http://www.inkscape.org/) -->

<svg
   width="71.190071mm"
   height="71.190071mm"
   viewBox="0 0 71.190073 71.190072"
   version="1.1"
   id="svg1"
   inkscape:version="1.3.2 (091e20e, 2023-11-25)"
   sodipodi:docname="favicon.svg"
   xmlns:inkscape="http://www.inkscape.org/namespaces/inkscape"
   xmlns:sodipodi="http://sodipodi.sourceforge.net/DTD/sodipodi-0.dtd"
   xmlns="http://www.w3.org/2000/svg"
   xmlns:svg="http://www.w3.org/2000/svg">
  <sodipodi:namedview
     id="namedview1"
     pagecolor="#ffffff"
     bordercolor="#666666"
     borderopacity="1.0"
     inkscape:showpageshadow="2"
     inkscape:pageopacity="0.0"
     inkscape:pagecheckerboard="0"
     inkscape:deskcolor="#d1d1d1"
     inkscape:document-units="mm"
     inkscape:zoom="0.5946522"
     inkscape:cx="190.02704"
     inkscape:cy="200.9578"
     inkscape:window-width="1232"
     inkscape:window-height="698"
     inkscape:window-x="141"
     inkscape:window-y="71"
     inkscape:window-maximized="0"
     inkscape:current-layer="layer1" />
  <defs
     id="defs1" />
  <g
     inkscape:label="Layer 1"
     inkscape:groupmode="layer"
     id="layer1"
     transform="translate(-35.62521,-101.20175)">
       <style>
      path {
         fill: rgb(100,100,100); <!-- set icon color for light mode -->
      }

      @media (prefers-color-scheme: dark) {
      path {
         fill: rgb(155,155,155); <!-- set icon color for dark mode -->
      }
      }
  </style>
    <path
       d="m 51.969923,166.07032 q 0.992791,0.74477 2.198338,0.49683 1.205537,-0.2124 2.623821,-1.2765 l 14.431033,-10.60167 14.466497,10.60167 q 1.418284,1.06373 2.623823,1.2765 1.205535,0.24794 2.162884,-0.49683 0.957339,-0.74477 1.134627,-1.9147 0.177304,-1.20557 -0.390072,-2.87205 l -5.708586,-16.98396 14.572862,-10.45982 q 1.41828,-0.99281 1.9856,-2.05654 0.60274,-1.09919 0.21276,-2.26921 -0.39006,-1.13466 -1.48919,-1.66648 -1.063715,-0.53144 -2.836568,-0.53144 l -17.870374,0.14222 -5.424936,-17.09035 q -0.531819,-1.66647 -1.382823,-2.51743 -0.850966,-0.88606 -2.056513,-0.88606 -1.205537,0 -2.056513,0.88606 -0.815506,0.85143 -1.382823,2.51743 l -5.424936,17.09035 -17.87037,-0.14222 q -1.737394,0 -2.836567,0.53144 -1.099174,0.53145 -1.489196,1.66648 -0.39007,1.17002 0.177304,2.26921 0.60274,1.06373 2.021052,2.05654 l 14.572859,10.45982 -5.708586,16.98396 q -0.56728,1.66648 -0.39007,2.87205 0.177305,1.17002 1.134635,1.9147 z"
      />
  </g>
</svg>
